inDegrees=yes
name=ik_lifting_orientations
DataType=double
version=3
OpenSimVersion=4.5-2024-01-10-34fd6af
endheader
time	pelvis_tilt	pelvis_list	pelvis_rotation	pelvis_tx	pelvis_ty	pelvis_tz	hip_flexion_r	hip_adduction_r	hip_rotation_r	knee_angle_r	knee_angle_r_beta	ankle_angle_r	subtalar_angle_r	mtp_angle_r	hip_flexion_l	hip_adduction_l	hip_rotation_l	knee_angle_l	knee_angle_l_beta	ankle_angle_l	subtalar_angle_l	mtp_angle_l	lumbar_extension	lumbar_bending	lumbar_rotation	arm_flex_r	arm_add_r	arm_rot_r	elbow_flex_r	pro_sup_r	wrist_flex_r	wrist_dev_r	arm_flex_l	arm_add_l	arm_rot_l	elbow_flex_l	pro_sup_l	wrist_flex_l	wrist_dev_l
1.52	1.55943132394693	-4.670820496803401	-92.92113336044287	0	0.9399999998679526	0	45.01598049812024	-10.29410228695107	0	59.90673810828155	1.045569824119472	-5.09350394569988	0	0	45.01598049812024	-10.29410228695107	0	59.90673810828155	1.045569824119472	-5.09350394569988	0	0	-41.56848252358247	-5.6670885102068	-13.78866205183964	39.15817639716686	-1.590954792257004	23.67915274276561	54.48620376366163	1.961830725331914	0	0	0	-11.23389574677772	0	88.06499615463338	1.961830725331914	0	0
1.53	1.31939936177695	-3.442076633289941	-88.88319448820769	0	0.9399999998679526	0	45.01576249947212	-10.28476948412549	0	59.90801806347478	1.045592163551872	-5.089988094748224	0	0	45.01576249947212	-10.28476948412549	0	59.90801806347478	1.045592163551872	-5.089988094748224	0	0	-38.26886438325678	-2.375972750514395	-16.97300898711399	37.66873565798332	-3.407507116370946	24.39064155769718	54.6474153043781	1.941206577475416	0	0	0	-11.26547117704627	0	88.08533633666896	1.941206577475416	0	0
1.54	1.097791760475454	-2.344985501383999	-88.76252821054476	0	0.9399999998679526	0	45.0156077741749	-10.27802956072713	0	59.90891849618045	1.045607879067279	-5.08743248378096	0	0	45.0156077741749	-10.27802956072713	0	59.90891849618045	1.045607879067279	-5.08743248378096	0	0	-34.58317258378104	-2.009139195559675	-16.74166538307677	35.36836315142651	-5.895363701154904	24.09858269175171	58.89347731424787	1.926605774639973	0	0	0	-11.28778734522092	0	88.09973610489233	1.926605774639973	0	0
1.55	0.9142456519087244	-1.448931427991533	-82.07368713374845	0	0.9399999998679526	0	45.01529136320421	-10.26465774272357	0	59.91075888784227	1.045639999961304	-5.082423140635651	0	0	45.01529136320421	-10.26465774272357	0	59.91075888784227	1.045639999961304	-5.082423140635651	0	0	-31.15180550873517	1.471536753213184	-21.56492495656689	32.83641295478073	-8.362736724054125	23.03515558226659	63.13573575499642	1.896629226235378	0	0	0	-11.33371483777333	0	88.12929991947581	1.896629226235378	0	0
1.56	0.7596624006913207	-0.7739083321023775	-82.14472706850245	0	0.9399999998679526	0	45.01509820378695	-10.25666065698362	0	59.91188677675927	1.045659685336502	-5.07944179779328	0	0	45.01509820378695	-10.25666065698362	0	59.91188677675927	1.045659685336502	-5.07944179779328	0	0	-27.92808304742683	1.160400378204372	-20.80388339387396	29.51188270272274	-11.2378150948355	21.49147505974292	68.40191895681994	1.878243690555456	0	0	0	-11.36198066724194	0	88.14743231721803	1.878243690555456	0	0
1.57	0.6305355114770087	-0.2909748330226602	-82.42877272014734	0	0.9399999998679526	0	45.01496701707955	-10.25128651338469	0	59.91264820003119	1.045672974679599	-5.077447815294964	0	0	45.01496701707955	-10.25128651338469	0	59.91264820003119	1.045672974679599	-5.077447815294964	0	0	-25.01317191779154	0.8660911423515569	-19.93736360069314	25.68109421308455	-14.41543727660595	19.66603485687895	74.7348998317601	1.865744557979911	0	0	0	-11.38120561546149	0	88.1597593581197	1.865744557979911	0	0
1.58	0.499253940503158	0.1924365178388518	-82.70053935542587	0	0.9399999998679526	0	45.01481873125611	-10.24533238832817	0	59.91351094206058	1.045688032368607	-5.075253528493821	0	0	45.01481873125611	-10.24533238832817	0	59.91351094206058	1.045688032368607	-5.075253528493821	0	0	-23.33790290548402	0.7058300421871587	-19.35269072644912	22.97927027272543	-17.10368271224621	17.73271403285595	81.11402325834506	1.85156868044888	0	0	0	-11.4030593651695	0	88.1737400602525	1.85156868044888	0	0
1.59	0.3968358033269143	0.5555028218103204	-83.12693146784632	0	0.9399999998679526	0	45.01470142056839	-10.24063342481687	0	59.91419087625436	1.045699899458985	-5.07352357543065	0	0	45.01470142056839	-10.24063342481687	0	59.91419087625436	1.045699899458985	-5.07352357543065	0	0	-20.66627539257823	0.475865524016689	-18.49175231651364	19.01127711021357	-19.82571702817848	15.80648207996107	87.85872707381263	1.840350955811593	0	0	0	-11.42035508091942	0	88.18480333783803	1.840350955811593	0	0
1.6	0.3271797667547983	0.798253372857445	-83.47675249065563	0	0.9399999998679526	0	45.01458811764262	-10.23613699064604	0	59.91484718548751	1.045711354216015	-5.071873532767513	0	0	45.01458811764262	-10.23613699064604	0	59.91484718548751	1.045711354216015	-5.071873532767513	0	0	-18.11210784839509	0.2657242703675233	-17.5360737740035	14.76130000466513	-22.43358321201205	13.59945130172192	94.71623541163088	1.829500196487102	0	0	0	-11.43710170847948	0	88.1955047032536	1.829500196487102	0	0
1.61	0.2961866488331005	0.867175602207232	-83.62574586464311	0	0.9399999998679526	0	45.01448568103612	-10.23207202550007	0	59.9154377698631	1.04572166185788	-5.07038274881074	0	0	45.01448568103612	-10.23207202550007	0	59.9154377698631	1.04572166185788	-5.07038274881074	0	0	-15.81791534908844	0.08844367582608498	-16.54702614260496	10.37583711574219	-24.90942788624649	11.04510426757196	101.8266926459539	1.819693685195628	0	0	0	-11.45223132894975	0	88.20517619770807	1.819693685195628	0	0
1.62	0.2676419046865769	0.8475015495485912	-83.81708392343401	0	0.9399999998679526	0	45.01441932964308	-10.2294122296765	0	59.91581853567472	1.045728307474971	-5.069404075440586	0	0	45.01441932964308	-10.2294122296765	0	59.91581853567472	1.045728307474971	-5.069404075440586	0	0	-13.64036913755372	-0.08282593268411356	-15.43564691931619	8.866603018850315	-26.48910088116179	9.483795004276681	106.1249913798716	1.813352279268714	0	0	0	-11.46200396286349	0	88.21143029422196	1.813352279268714	0	0
1.63	0.2889583779056419	0.7207891712153854	-84.01850460343569	0	0.9399999998679526	0	45.01435586168209	-10.22686017956887	0	59.91618087274831	1.045734631449908	-5.068464941819432	0	0	45.01435586168209	-10.22686017956887	0	59.91618087274831	1.045734631449908	-5.068464941819432	0	0	-11.85066128662635	-0.2275982322577179	-14.33369001249337	7.883160777312032	-27.62619996905802	8.07864702559964	109.6584752832904	1.80729309350852	0	0	0	-11.47133333454846	0	88.21740605590337	1.80729309350852	0	0
1.64	0.2746201290151528	0.657170828981392	-84.25432003359272	0	0.9399999998679526	0	45.01430039416861	-10.22464662668013	0	59.91649788728929	1.045740164397424	-5.067652366641975	0	0	45.01430039416861	-10.22464662668013	0	59.91649788728929	1.045740164397424	-5.067652366641975	0	0	-9.923459520844336	-0.305748186537445	-13.06733771590096	6.841849351545298	-28.65138738962598	6.821086051381281	110.9803130090854	1.801990492536257	0	0	0	-11.47950552915086	0	88.22263564993453	1.801990492536257	0	0
1.65	0.2197085991709569	0.6505525537864977	-84.58955584771751	0	0.9399999998679526	0	45.01424033870082	-10.2222896920994	0	59.91684204022479	1.045746170999279	-5.066792050240569	0	0	45.01424033870082	-10.2222896920994	0	59.91684204022479	1.045746170999279	-5.066792050240569	0	0	-8.221308839901498	-0.3820806966238146	-11.19292075782131	3.069874857272271	-29.79019554998623	3.465337511041075	116.695348609174	1.796233630082746	0	0	0	-11.48839401879562	0	88.2283132517682	1.796233630082746	0	0
1.66	0.2004735827041409	0.6510834319814331	-84.77697736157717	0	0.9399999998679526	0	45.0141883303687	-10.22023442768215	0	59.91713862419542	1.045751347366075	-5.066040559452444	0	0	45.0141883303687	-10.22023442768215	0	59.91713862419542	1.045751347366075	-5.066040559452444	0	0	-6.50875315887381	-0.4152275165033466	-9.444876804429908	-0.8753793787199655	-30.5440112841408	-0.1204357981678749	121.8558251028433	1.791255738470043	0	0	0	-11.4960711315273	0	88.23322260732395	1.791255738470043	0	0
1.67	0.1789366835047353	0.6779169606394251	-85.03629896376297	0	0.9399999998679526	0	45.01415108412094	-10.21874436042265	0	59.9173485058901	1.045755010492687	-5.06549471445946	0	0	45.01415108412094	-10.21874436042265	0	59.9173485058901	1.045755010492687	-5.06549471445946	0	0	-4.986577920920118	-0.4807555088087867	-7.387372791824138	-1.518020277789514	-30.64238588817705	-1.950148997009174	124.6928197630921	1.78770349496031	0	0	0	-11.50153409185033	0	88.23672594263539	1.78770349496031	0	0
1.68	0.1554994412740029	0.6999224115119279	-85.23200101131323	0	0.9399999998679526	0	45.01411072717447	-10.2171867443688	0	59.91757943524744	1.045759040970312	-5.064929847078076	0	0	45.01411072717447	-10.2171867443688	0	59.91757943524744	1.045759040970312	-5.064929847078076	0	0	-3.778458589385059	-0.4614289309572613	-7.351608497731221	-0.4286497326290487	-30.78863974623686	-1.353990572661748	127.517389717644	1.783826129690904	0	0	0	-11.50752908980377	0	88.24054992460309	1.783826129690904	0	0
1.69	0.1120777707756896	0.7657943262397136	-85.49496056357114	0	0.9399999998679526	0	45.01407010493894	-10.21562096719144	0	59.91781164275804	1.04576309375592	-5.064362375169335	0	0	45.01407010493894	-10.21562096719144	0	59.91781164275804	1.04576309375592	-5.064362375169335	0	0	-2.51610430728039	-0.4222657714613522	-7.230132334079959	0.6827340396907178	-30.91169882317059	-0.3844200685253739	130.765571043359	1.779922806767679	0	0	0	-11.51356455344902	0	88.24439950686272	1.779922806767679	0	0
1.7	0.09112241026506618	0.79432559861633	-85.62827107031438	0	0.9399999998679526	0	45.01402810204002	-10.2140070660034	0	59.91805157028006	1.045767281281146	-5.063778207689087	0	0	45.01402810204002	-10.2140070660034	0	59.91805157028006	1.045767281281146	-5.063778207689087	0	0	-1.47337169076361	-0.3998437572820929	-7.187728818706342	2.134659322929561	-30.92223865278282	0.7424454387216465	133.9556703753976	1.775885207851492	0	0	0	-11.5198091201443	0	88.24838151647947	1.775885207851492	0	0
1.71	0.09323722079294777	0.8271260012922299	-85.76818393716147	0	0.9399999998679526	0	45.01402398464027	-10.21378705705759	0	59.91807044408574	1.045767610691197	-5.063692643062955	0	0	45.01402398464027	-10.21378705705759	0	59.91807044408574	1.045767610691197	-5.063692643062955	0	0	-0.5531719798862977	-0.3856437900612485	-7.188532748327588	3.825446502255031	-30.64993582933299	1.924496222539488	136.4117733779491	1.775522683843225	0	0	0	-11.52033187914389	0	88.24873904783884	1.775522683843225	0	0
